<?xml version="1.0" encoding="UTF-8" standalone="no"?>
<!DOCTYPE svg PUBLIC "-//W3C//DTD SVG 1.1//EN" "http://www.w3.org/Graphics/SVG/1.1/DTD/svg11.dtd">
<svg xmlns="http://www.w3.org/2000/svg" version="1.1" viewBox="0 0 225 225">
<g stroke-width="2.0" fill="none" stroke-linecap="butt">
<path stroke="#808080" vector-effect="non-scaling-stroke" d="
  M 64.94 109.57
  L 80.96 118.83
  Q 81.76 119.30 81.75 118.37
  Q 81.57 90.87 81.97 63.71
  Q 82.01 61.07 83.07 59.57
  Q 84.39 57.70 86.50 56.62
  Q 88.26 55.71 88.33 55.67
  Q 106.87 44.88 125.69 34.14
  C 125.98 33.97 126.01 33.57 125.75 33.36
  Q 116.89 26.44 105.73 25.43
  Q 88.28 23.85 75.81 35.81
  Q 67.25 44.03 65.14 55.29
  Q 64.50 58.69 64.50 75.25
  Q 64.50 91.79 64.50 108.79
  C 64.50 109.11 64.67 109.41 64.94 109.57"
/>
<path stroke="#808080" vector-effect="non-scaling-stroke" d="
  M 166.48 44.46
  Q 153.77 37.98 139.94 42.13
  Q 134.78 43.68 122.09 50.99
  Q 107.00 59.68 91.48 68.59
  C 91.03 68.85 90.75 69.33 90.75 69.85
  L 90.75 88.28
  C 90.75 88.61 91.11 88.82 91.40 88.65
  Q 115.67 74.67 139.84 60.87
  Q 142.97 59.08 146.10 60.88
  Q 166.36 72.58 186.73 84.64
  C 186.97 84.78 187.27 84.63 187.31 84.36
  Q 189.27 68.95 181.40 57.42
  Q 175.79 49.20 166.48 44.46"
/>
<path stroke="#808080" vector-effect="non-scaling-stroke" d="
  M 102.90 141.88
  Q 79.45 128.34 56.32 114.96
  Q 53.84 113.52 53.09 112.55
  Q 51.79 110.88 51.79 108.50
  Q 51.80 85.16 51.69 61.82
  C 51.69 61.58 51.44 61.41 51.22 61.50
  Q 34.98 68.02 29.38 83.06
  Q 25.82 92.64 27.52 102.72
  Q 29.38 113.71 37.04 121.91
  Q 40.55 125.66 48.44 130.35
  Q 66.57 141.12 85.70 151.88
  C 86.08 152.10 86.55 152.09 86.93 151.87
  L 102.89 142.71
  Q 103.62 142.30 102.90 141.88"
/>
<path stroke="#808080" vector-effect="non-scaling-stroke" d="
  M 184.57 98.94
  Q 182.38 97.07 179.91 95.61
  Q 159.75 83.70 139.65 72.18
  C 139.18 71.91 138.60 71.91 138.13 72.18
  L 122.55 81.07
  Q 121.46 81.69 122.55 82.33
  Q 144.72 95.08 167.04 108.09
  Q 167.12 108.14 169.14 109.16
  Q 171.25 110.22 172.43 112.08
  Q 173.50 113.76 173.50 117.14
  Q 173.46 139.77 173.56 162.00
  C 173.56 162.48 174.06 162.80 174.50 162.61
  Q 190.05 155.80 195.55 141.43
  Q 199.21 131.85 197.68 121.78
  Q 195.63 108.36 184.57 98.94"
/>
<path stroke="#808080" vector-effect="non-scaling-stroke" d="
  M 134.14 99.38
  L 112.94 87.24
  C 112.67 87.08 112.33 87.08 112.06 87.24
  L 91.24 99.30
  C 90.97 99.45 90.81 99.74 90.81 100.06
  L 90.75 123.57
  C 90.75 124.12 91.05 124.64 91.55 124.93
  L 112.06 136.84
  C 112.36 137.01 112.72 137.01 113.01 136.84
  L 133.95 124.74
  C 134.29 124.54 134.50 124.18 134.50 123.79
  L 134.50 100.02
  C 134.50 99.75 134.36 99.51 134.14 99.38"
/>
<path stroke="#808080" vector-effect="non-scaling-stroke" d="
  M 160.15 114.40
  L 143.76 105.05
  C 143.56 104.93 143.31 105.08 143.31 105.32
  Q 143.20 132.91 143.14 160.50
  Q 143.13 164.60 139.66 166.63
  Q 119.90 178.17 99.82 189.70
  C 99.33 189.98 99.28 190.67 99.72 191.01
  Q 107.93 197.39 117.92 198.66
  Q 127.64 199.90 136.79 196.35
  Q 146.23 192.68 152.69 184.44
  Q 157.20 178.68 159.19 171.51
  Q 160.49 166.84 160.56 157.37
  Q 160.74 136.70 160.75 115.47
  C 160.75 115.02 160.52 114.61 160.15 114.40"
/>
<path stroke="#808080" vector-effect="non-scaling-stroke" d="
  M 80.94 163.72
  Q 78.81 162.96 76.28 161.49
  Q 57.49 150.60 38.68 139.75
  C 38.45 139.62 38.17 139.73 38.09 139.97
  Q 36.96 143.57 37.50 148.50
  Q 38.67 159.18 44.16 167.21
  Q 49.47 174.99 58.79 179.54
  Q 73.08 186.51 88.05 180.93
  Q 91.64 179.58 105.66 171.49
  Q 119.52 163.48 133.75 155.37
  C 134.21 155.10 134.50 154.61 134.50 154.07
  L 134.50 135.81
  C 134.50 135.40 134.06 135.14 133.70 135.34
  L 84.88 163.36
  Q 82.99 164.45 80.94 163.72"
/>
</g>
<path fill="#000000" d="
  M 46.19 187.31
  Q 33.62 178.81 28.02 164.59
  Q 24.80 156.44 24.53 148.10
  Q 24.25 139.73 26.67 131.11
  C 26.82 130.56 26.70 129.98 26.34 129.55
  Q 15.48 116.43 14.00 100.00
  Q 13.08 89.78 17.05 79.27
  Q 26.58 54.07 52.70 47.26
  C 53.51 47.05 54.17 46.47 54.48 45.69
  Q 63.89 21.81 87.69 14.19
  Q 99.43 10.43 112.54 13.29
  Q 128.30 16.74 139.01 28.24
  C 139.35 28.61 139.86 28.78 140.36 28.69
  Q 150.33 26.91 159.63 28.65
  Q 168.65 30.32 177.16 35.64
  Q 195.71 47.22 200.00 69.50
  Q 202.11 80.49 198.39 93.52
  C 198.30 93.82 198.37 94.14 198.57 94.38
  Q 213.96 112.92 210.32 135.48
  Q 208.69 145.63 203.49 154.13
  Q 192.92 171.43 171.80 176.82
  C 171.42 176.91 171.11 177.19 170.97 177.57
  Q 163.81 197.19 146.24 206.21
  Q 137.38 210.76 127.15 211.68
  Q 103.32 213.81 85.92 195.68
  C 85.64 195.39 85.24 195.26 84.84 195.33
  Q 63.43 198.98 46.19 187.31
  Z
  M 64.94 109.57
  L 80.96 118.83
  Q 81.76 119.30 81.75 118.37
  Q 81.57 90.87 81.97 63.71
  Q 82.01 61.07 83.07 59.57
  Q 84.39 57.70 86.50 56.62
  Q 88.26 55.71 88.33 55.67
  Q 106.87 44.88 125.69 34.14
  C 125.98 33.97 126.01 33.57 125.75 33.36
  Q 116.89 26.44 105.73 25.43
  Q 88.28 23.85 75.81 35.81
  Q 67.25 44.03 65.14 55.29
  Q 64.50 58.69 64.50 75.25
  Q 64.50 91.79 64.50 108.79
  C 64.50 109.11 64.67 109.41 64.94 109.57
  Z
  M 166.48 44.46
  Q 153.77 37.98 139.94 42.13
  Q 134.78 43.68 122.09 50.99
  Q 107.00 59.68 91.48 68.59
  C 91.03 68.85 90.75 69.33 90.75 69.85
  L 90.75 88.28
  C 90.75 88.61 91.11 88.82 91.40 88.65
  Q 115.67 74.67 139.84 60.87
  Q 142.97 59.08 146.10 60.88
  Q 166.36 72.58 186.73 84.64
  C 186.97 84.78 187.27 84.63 187.31 84.36
  Q 189.27 68.95 181.40 57.42
  Q 175.79 49.20 166.48 44.46
  Z
  M 102.90 141.88
  Q 79.45 128.34 56.32 114.96
  Q 53.84 113.52 53.09 112.55
  Q 51.79 110.88 51.79 108.50
  Q 51.80 85.16 51.69 61.82
  C 51.69 61.58 51.44 61.41 51.22 61.50
  Q 34.98 68.02 29.38 83.06
  Q 25.82 92.64 27.52 102.72
  Q 29.38 113.71 37.04 121.91
  Q 40.55 125.66 48.44 130.35
  Q 66.57 141.12 85.70 151.88
  C 86.08 152.10 86.55 152.09 86.93 151.87
  L 102.89 142.71
  Q 103.62 142.30 102.90 141.88
  Z
  M 184.57 98.94
  Q 182.38 97.07 179.91 95.61
  Q 159.75 83.70 139.65 72.18
  C 139.18 71.91 138.60 71.91 138.13 72.18
  L 122.55 81.07
  Q 121.46 81.69 122.55 82.33
  Q 144.72 95.08 167.04 108.09
  Q 167.12 108.14 169.14 109.16
  Q 171.25 110.22 172.43 112.08
  Q 173.50 113.76 173.50 117.14
  Q 173.46 139.77 173.56 162.00
  C 173.56 162.48 174.06 162.80 174.50 162.61
  Q 190.05 155.80 195.55 141.43
  Q 199.21 131.85 197.68 121.78
  Q 195.63 108.36 184.57 98.94
  Z
  M 134.14 99.38
  L 112.94 87.24
  C 112.67 87.08 112.33 87.08 112.06 87.24
  L 91.24 99.30
  C 90.97 99.45 90.81 99.74 90.81 100.06
  L 90.75 123.57
  C 90.75 124.12 91.05 124.64 91.55 124.93
  L 112.06 136.84
  C 112.36 137.01 112.72 137.01 113.01 136.84
  L 133.95 124.74
  C 134.29 124.54 134.50 124.18 134.50 123.79
  L 134.50 100.02
  C 134.50 99.75 134.36 99.51 134.14 99.38
  Z
  M 160.15 114.40
  L 143.76 105.05
  C 143.56 104.93 143.31 105.08 143.31 105.32
  Q 143.20 132.91 143.14 160.50
  Q 143.13 164.60 139.66 166.63
  Q 119.90 178.17 99.82 189.70
  C 99.33 189.98 99.28 190.67 99.72 191.01
  Q 107.93 197.39 117.92 198.66
  Q 127.64 199.90 136.79 196.35
  Q 146.23 192.68 152.69 184.44
  Q 157.20 178.68 159.19 171.51
  Q 160.49 166.84 160.56 157.37
  Q 160.74 136.70 160.75 115.47
  C 160.75 115.02 160.52 114.61 160.15 114.40
  Z
  M 80.94 163.72
  Q 78.81 162.96 76.28 161.49
  Q 57.49 150.60 38.68 139.75
  C 38.45 139.62 38.17 139.73 38.09 139.97
  Q 36.96 143.57 37.50 148.50
  Q 38.67 159.18 44.16 167.21
  Q 49.47 174.99 58.79 179.54
  Q 73.08 186.51 88.05 180.93
  Q 91.64 179.58 105.66 171.49
  Q 119.52 163.48 133.75 155.37
  C 134.21 155.10 134.50 154.61 134.50 154.07
  L 134.50 135.81
  C 134.50 135.40 134.06 135.14 133.70 135.34
  L 84.88 163.36
  Q 82.99 164.45 80.94 163.72
  Z"
/>
<path fill="#ffffff" d="
  M 64.94 109.57
  C 64.67 109.41 64.50 109.11 64.50 108.79
  Q 64.50 91.79 64.50 75.25
  Q 64.50 58.69 65.14 55.29
  Q 67.25 44.03 75.81 35.81
  Q 88.28 23.85 105.73 25.43
  Q 116.89 26.44 125.75 33.36
  C 126.01 33.57 125.98 33.97 125.69 34.14
  Q 106.87 44.88 88.33 55.67
  Q 88.26 55.71 86.50 56.62
  Q 84.39 57.70 83.07 59.57
  Q 82.01 61.07 81.97 63.71
  Q 81.57 90.87 81.75 118.37
  Q 81.76 119.30 80.96 118.83
  L 64.94 109.57
  Z"
/>
<path fill="#ffffff" d="
  M 181.40 57.42
  Q 189.27 68.95 187.31 84.36
  C 187.27 84.63 186.97 84.78 186.73 84.64
  Q 166.36 72.58 146.10 60.88
  Q 142.97 59.08 139.84 60.87
  Q 115.67 74.67 91.40 88.65
  C 91.11 88.82 90.75 88.61 90.75 88.28
  L 90.75 69.85
  C 90.75 69.33 91.03 68.85 91.48 68.59
  Q 107.00 59.68 122.09 50.99
  Q 134.78 43.68 139.94 42.13
  Q 153.77 37.98 166.48 44.46
  Q 175.79 49.20 181.40 57.42
  Z"
/>
<path fill="#ffffff" d="
  M 102.90 141.88
  Q 103.62 142.30 102.89 142.71
  L 86.93 151.87
  C 86.55 152.09 86.08 152.10 85.70 151.88
  Q 66.57 141.12 48.44 130.35
  Q 40.55 125.66 37.04 121.91
  Q 29.38 113.71 27.52 102.72
  Q 25.82 92.64 29.38 83.06
  Q 34.98 68.02 51.22 61.50
  C 51.44 61.41 51.69 61.58 51.69 61.82
  Q 51.80 85.16 51.79 108.50
  Q 51.79 110.88 53.09 112.55
  Q 53.84 113.52 56.32 114.96
  Q 79.45 128.34 102.90 141.88
  Z"
/>
<path fill="#ffffff" d="
  M 184.57 98.94
  Q 195.63 108.36 197.68 121.78
  Q 199.21 131.85 195.55 141.43
  Q 190.05 155.80 174.50 162.61
  C 174.06 162.80 173.56 162.48 173.56 162.00
  Q 173.46 139.77 173.50 117.14
  Q 173.50 113.76 172.43 112.08
  Q 171.25 110.22 169.14 109.16
  Q 167.12 108.14 167.04 108.09
  Q 144.72 95.08 122.55 82.33
  Q 121.46 81.69 122.55 81.07
  L 138.13 72.18
  C 138.60 71.91 139.18 71.91 139.65 72.18
  Q 159.75 83.70 179.91 95.61
  Q 182.38 97.07 184.57 98.94
  Z"
/>
<path fill="#ffffff" d="
  M 134.14 99.38
  C 134.36 99.51 134.50 99.75 134.50 100.02
  L 134.50 123.79
  C 134.50 124.18 134.29 124.54 133.95 124.74
  L 113.01 136.84
  C 112.72 137.01 112.36 137.01 112.06 136.84
  L 91.55 124.93
  C 91.05 124.64 90.75 124.12 90.75 123.57
  L 90.81 100.06
  C 90.81 99.74 90.97 99.45 91.24 99.30
  L 112.06 87.24
  C 112.33 87.08 112.67 87.08 112.94 87.24
  L 134.14 99.38
  Z"
/>
<path fill="#ffffff" d="
  M 160.15 114.40
  C 160.52 114.61 160.75 115.02 160.75 115.47
  Q 160.74 136.70 160.56 157.37
  Q 160.49 166.84 159.19 171.51
  Q 157.20 178.68 152.69 184.44
  Q 146.23 192.68 136.79 196.35
  Q 127.64 199.90 117.92 198.66
  Q 107.93 197.39 99.72 191.01
  C 99.28 190.67 99.33 189.98 99.82 189.70
  Q 119.90 178.17 139.66 166.63
  Q 143.13 164.60 143.14 160.50
  Q 143.20 132.91 143.31 105.32
  C 143.31 105.08 143.56 104.93 143.76 105.05
  L 160.15 114.40
  Z"
/>
<path fill="#ffffff" d="
  M 80.94 163.72
  Q 82.99 164.45 84.88 163.36
  L 133.70 135.34
  C 134.06 135.14 134.50 135.40 134.50 135.81
  L 134.50 154.07
  C 134.50 154.61 134.21 155.10 133.75 155.37
  Q 119.52 163.48 105.66 171.49
  Q 91.64 179.58 88.05 180.93
  Q 73.08 186.51 58.79 179.54
  Q 49.47 174.99 44.16 167.21
  Q 38.67 159.18 37.50 148.50
  Q 36.96 143.57 38.09 139.97
  C 38.17 139.73 38.45 139.62 38.68 139.75
  Q 57.49 150.60 76.28 161.49
  Q 78.81 162.96 80.94 163.72
  Z"
/>
</svg>
